<svg width="800" height="500" viewBox="0 0 800 500" fill="none" xmlns="http://www.w3.org/2000/svg">
  <rect width="800" height="500" rx="4" fill="#F8FAFC"/>
  
  <!-- Header -->
  <rect y="0" width="800" height="60" fill="#FFFFFF"/>
  <rect x="24" y="18" width="120" height="24" rx="4" fill="#E2E8F0"/>
  <rect x="650" y="18" width="40" height="24" rx="12" fill="#E2E8F0"/>
  <rect x="700" y="18" width="40" height="24" rx="12" fill="#E2E8F0"/>
  <rect x="750" y="18" width="24" height="24" rx="12" fill="#E2E8F0"/>
  
  <!-- Sidebar -->
  <rect x="0" y="60" width="200" height="440" fill="#FFFFFF"/>
  <rect x="24" y="100" width="152" height="16" rx="2" fill="#E2E8F0"/>
  <rect x="24" y="140" width="152" height="16" rx="2" fill="#E2E8F0"/>
  <rect x="24" y="180" width="152" height="16" rx="2" fill="#E2E8F0"/>
  <rect x="24" y="220" width="152" height="16" rx="2" fill="#E2E8F0"/>
  <rect x="24" y="260" width="152" height="16" rx="2" fill="#E2E8F0"/>
  
  <!-- Main Content Area -->
  <rect x="224" y="84" width="552" height="40" rx="4" fill="#FFFFFF"/>
  <rect x="240" y="96" width="180" height="16" rx="2" fill="#E2E8F0"/>
  <rect x="660" y="92" width="100" height="24" rx="4" fill="#3B82F6"/>
  
  <!-- Stats Cards -->
  <rect x="224" y="144" width="170" height="120" rx="4" fill="#FFFFFF"/>
  <rect x="240" y="164" width="80" height="16" rx="2" fill="#E2E8F0"/>
  <rect x="240" y="192" width="120" height="24" rx="2" fill="#94A3B8"/>
  <circle cx="320" cy="230" r="24" fill="#DBEAFE"/>
  <path d="M320 206V230L335 215" stroke="#3B82F6" stroke-width="4" stroke-linecap="round" stroke-linejoin="round"/>
  
  <rect x="414" y="144" width="170" height="120" rx="4" fill="#FFFFFF"/>
  <rect x="430" y="164" width="80" height="16" rx="2" fill="#E2E8F0"/>
  <rect x="430" y="192" width="120" height="24" rx="2" fill="#94A3B8"/>
  <circle cx="510" cy="230" r="24" fill="#DCFCE7"/>
  <path d="M500 230L506 236L520 222" stroke="#22C55E" stroke-width="4" stroke-linecap="round" stroke-linejoin="round"/>
  
  <rect x="604" y="144" width="170" height="120" rx="4" fill="#FFFFFF"/>
  <rect x="620" y="164" width="80" height="16" rx="2" fill="#E2E8F0"/>
  <rect x="620" y="192" width="120" height="24" rx="2" fill="#94A3B8"/>
  <circle cx="700" cy="230" r="24" fill="#FEE2E2"/>
  <path d="M700 222V238M700 214V214.01" stroke="#EF4444" stroke-width="4" stroke-linecap="round" stroke-linejoin="round"/>
  
  <!-- Table -->
  <rect x="224" y="284" width="552" height="196" rx="4" fill="#FFFFFF"/>
  <rect x="240" y="304" width="120" height="16" rx="2" fill="#E2E8F0"/>
  
  <!-- Table Headers -->
  <rect x="240" y="340" width="80" height="12" rx="2" fill="#CBD5E1"/>
  <rect x="340" y="340" width="80" height="12" rx="2" fill="#CBD5E1"/>
  <rect x="440" y="340" width="80" height="12" rx="2" fill="#CBD5E1"/>
  <rect x="540" y="340" width="80" height="12" rx="2" fill="#CBD5E1"/>
  <rect x="640" y="340" width="80" height="12" rx="2" fill="#CBD5E1"/>
  
  <!-- Table Rows -->
  <rect x="240" y="375" width="80" height="12" rx="2" fill="#E2E8F0"/>
  <rect x="340" y="375" width="80" height="12" rx="2" fill="#E2E8F0"/>
  <rect x="440" y="375" width="80" height="12" rx="2" fill="#E2E8F0"/>
  <rect x="540" y="375" width="80" height="12" rx="2" fill="#E2E8F0"/>
  <rect x="640" y="375" width="60" height="24" rx="4" fill="#EFF6FF"/>
  <rect x="650" y="381" width="40" height="12" rx="2" fill="#93C5FD"/>
  
  <rect x="240" y="410" width="80" height="12" rx="2" fill="#E2E8F0"/>
  <rect x="340" y="410" width="80" height="12" rx="2" fill="#E2E8F0"/>
  <rect x="440" y="410" width="80" height="12" rx="2" fill="#E2E8F0"/>
  <rect x="540" y="410" width="80" height="12" rx="2" fill="#E2E8F0"/>
  <rect x="640" y="410" width="60" height="24" rx="4" fill="#F0FDF4"/>
  <rect x="650" y="416" width="40" height="12" rx="2" fill="#86EFAC"/>
  
  <rect x="240" y="445" width="80" height="12" rx="2" fill="#E2E8F0"/>
  <rect x="340" y="445" width="80" height="12" rx="2" fill="#E2E8F0"/>
  <rect x="440" y="445" width="80" height="12" rx="2" fill="#E2E8F0"/>
  <rect x="540" y="445" width="80" height="12" rx="2" fill="#E2E8F0"/>
  <rect x="640" y="445" width="60" height="24" rx="4" fill="#FEF2F2"/>
  <rect x="650" y="451" width="40" height="12" rx="2" fill="#FCA5A5"/>
</svg> 